<?xml version="1.0" encoding="UTF-8"?>
<svg xmlns="http://www.w3.org/2000/svg" xmlns:xlink="http://www.w3.org/1999/xlink" viewBox="0 0 50 50" width="50px" height="50px">
<g id="surface54782776">
<path style=" stroke:none;fill-rule:nonzero;fill:rgb(39.607844%,39.607844%,40.784314%);fill-opacity:1;" d="M 50 24.9375 C 50 28.5625 47.574219 31 43.960938 31 C 42.628906 31 41.460938 30.667969 40.519531 30.066406 C 40.367188 30.910156 40.105469 31.640625 39.652344 32.324219 C 38.847656 33.546875 37.195312 35 33.910156 35 C 32.664062 35 31.578125 34.808594 30.484375 34.394531 L 29.195312 33.90625 L 29.195312 31 C 29.195312 31 18.402344 31 17.902344 31 C 16.9375 31 16.171875 30.851562 15.542969 30.617188 C 15.445312 30.90625 15.335938 31.1875 15.191406 31.460938 C 14.574219 32.660156 13.722656 33.449219 12.246094 34.183594 L 11.378906 34.613281 L 10.503906 34.199219 L 8.167969 33.101562 L 2.902344 30.175781 L 2.914062 30.175781 C 1.046875 29.199219 0 27.390625 0 24.945312 C 0 21.53125 2.25 19.074219 5.5625 18.746094 L 5.5625 15 L 16.015625 15 L 16.015625 19.398438 C 16.875 19.140625 17.746094 19 18.660156 19 C 20.027344 19 20.976562 19.328125 21.644531 19.773438 L 22.171875 19.628906 C 23.765625 19.195312 25.078125 19 26.429688 19 C 28.21875 19 29.589844 19.496094 30.511719 20.480469 C 30.644531 20.621094 30.757812 20.761719 30.863281 20.910156 C 32.09375 19.769531 33.992188 19 36.757812 19 C 37.945312 19 39.078125 19.117188 40.433594 19.386719 L 41.3125 19.558594 C 42.117188 19.199219 43.039062 19 44.058594 19 C 47.613281 19 50 21.386719 50 24.9375 Z M 7.5625 17 L 7.5625 20.839844 C 7.183594 20.742188 6.734375 20.710938 6.328125 20.710938 C 3.695312 20.710938 2 22.375 2 24.945312 C 2 27.609375 3.601562 28.996094 6.675781 29 C 7.703125 29 8.710938 28.902344 10 28.65625 L 10 17 Z M 7.5625 22.863281 L 7.5625 26.910156 C 7.199219 26.957031 6.835938 26.972656 6.558594 26.972656 C 5.269531 26.972656 4.566406 26.234375 4.566406 24.894531 C 4.566406 23.519531 5.300781 22.734375 6.574219 22.734375 C 6.886719 22.734375 7.265625 22.769531 7.5625 22.863281 Z M 11.488281 21 L 11.488281 25.914062 C 11.488281 28.085938 11.375 28.910156 11.015625 29.621094 C 10.671875 30.316406 10.132812 30.773438 9.023438 31.289062 L 11.359375 32.390625 C 12.46875 31.839844 13.007812 31.339844 13.414062 30.546875 C 13.851562 29.722656 14 28.765625 14 26.777344 L 14 21 Z M 11.5 19.558594 L 14.015625 19.558594 L 14.015625 17 L 11.5 17 Z M 15.496094 23.597656 C 16.429688 23.109375 17.425781 22.855469 18.308594 22.855469 C 18.910156 22.855469 19.128906 23.015625 19.128906 23.453125 L 19.128906 23.988281 C 16.195312 24.238281 15 25.023438 15 26.722656 C 15 28.292969 15.898438 29 17.902344 29 C 18.894531 29 20.246094 28.886719 21.320312 28.730469 L 21.320312 23.8125 C 21.320312 22.808594 21.253906 22.335938 21.054688 21.976562 C 20.699219 21.328125 19.890625 21 18.660156 21 C 17.558594 21 16.550781 21.222656 15.492188 21.722656 Z M 19.238281 25.570312 L 19.238281 27.191406 C 18.773438 27.269531 18.445312 27.300781 18.089844 27.300781 C 17.4375 27.300781 17.140625 27.082031 17.140625 26.609375 C 17.140625 25.980469 17.65625 25.726562 19.238281 25.570312 Z M 22.699219 29 L 25 29 L 25 23.15625 C 25.476562 23.011719 25.84375 22.980469 26.167969 22.980469 C 27.015625 22.980469 27.410156 23.332031 27.410156 24.273438 L 27.410156 29 L 29.699219 29 L 29.699219 24.175781 C 29.699219 22.949219 29.542969 22.371094 29.050781 21.847656 C 28.527344 21.289062 27.648438 21 26.429688 21 C 25.261719 21 24.105469 21.175781 22.699219 21.558594 Z M 31.195312 30.269531 L 31.195312 32.523438 C 32.078125 32.859375 32.925781 33 33.910156 33 C 35.839844 33 37.199219 32.410156 37.984375 31.222656 C 38.523438 30.410156 38.703125 29.429688 38.703125 27.332031 L 38.703125 26.664062 C 38.6875 26.332031 38.6875 26 38.671875 25.664062 L 38.65625 24.332031 L 38.621094 23.300781 L 38.621094 23.046875 C 39.128906 23.09375 38.511719 22.984375 39.183594 23.109375 L 40.046875 21.347656 C 38.835938 21.109375 37.839844 21 36.757812 21 C 33.078125 21 31 22.570312 31 25.347656 C 31 27.585938 32.40625 28.996094 34.613281 28.996094 C 35.265625 28.996094 35.757812 28.898438 36.246094 28.664062 L 36.246094 28.710938 C 36.246094 30.265625 35.542969 30.917969 33.894531 30.917969 C 32.960938 30.917969 32.078125 30.710938 31.195312 30.269531 Z M 36.199219 23.15625 L 36.21875 23.96875 L 36.234375 25.09375 C 36.234375 25.425781 36.25 25.742188 36.25 26.03125 L 36.25 26.875 C 35.925781 26.96875 35.644531 27.03125 35.304688 27.03125 C 34.191406 27.03125 33.566406 26.332031 33.566406 25.113281 C 33.566406 24.257812 33.878906 23.652344 34.480469 23.320312 C 34.875 23.082031 35.449219 22.953125 35.9375 22.972656 L 36.199219 22.972656 Z M 40 25.078125 C 40 27.496094 41.511719 29 43.960938 29 C 46.441406 29 48 27.433594 48 24.9375 C 48 22.503906 46.503906 21 44.058594 21 C 41.5625 21 40.003906 22.566406 40 25.078125 Z M 44.007812 27.074219 C 43.054688 27.074219 42.496094 26.316406 42.496094 24.996094 C 42.496094 23.679688 43.054688 22.917969 44.023438 22.917969 C 44.964844 22.917969 45.503906 23.695312 45.503906 24.996094 C 45.503906 26.316406 44.949219 27.074219 44.007812 27.074219 Z M 44.007812 27.074219 "/>
</g>
</svg>
