<svg xmlns="http://www.w3.org/2000/svg" width="64.005" height="48" viewBox="0 0 64.005 48">
    <path id="logo_sass" class="tech__zone--svg" d="M55.567,28.047a13.248,13.248,0,0,0-5.8,1.344,12.214,12.214,0,0,1-1.3-3,8.067,8.067,0,0,1-.117-2.525,22.468,22.468,0,0,1,.76-2.724c-.012-.117-.14-.666-1.426-.678s-2.4.246-2.525.585a14.111,14.111,0,0,0-.538,1.906c-.222,1.169-2.572,5.343-3.916,7.529a8.13,8.13,0,0,1-.889-2.2,8.067,8.067,0,0,1-.117-2.525,22.468,22.468,0,0,1,.76-2.724c-.012-.117-.14-.666-1.426-.678s-2.4.246-2.525.585-.269,1.134-.538,1.906-3.39,7.739-4.209,9.54c-.421.924-.783,1.66-1.04,2.163h0a.537.537,0,0,1-.047.094c-.222.432-.35.666-.35.666v.012c-.175.316-.363.608-.456.608a3.91,3.91,0,0,1,.023-1.987c.468-2.42,1.578-6.184,1.567-6.313,0-.07.21-.725-.725-1.064a1.161,1.161,0,0,0-1.321.222c-.082,0-.14.2-.14.2s1.017-4.232-1.941-4.232c-1.847,0-4.4,2.023-5.658,3.846-.795.433-2.49,1.356-4.3,2.35-.69.386-1.4.772-2.069,1.134-.047-.047-.094-.105-.14-.152C11.587,28.106,4.97,25.405,5.25,20.273,5.356,18.4,6,13.492,17.958,7.53,27.8,2.678,35.635,4.023,36.991,7c1.941,4.255-4.2,12.158-14.368,13.3-3.881.433-5.916-1.064-6.43-1.625-.538-.585-.62-.62-.818-.5-.327.175-.117.7,0,1.005a6,6,0,0,0,3.671,2.888c1.871.608,6.418.947,11.925-1.181,6.161-2.385,10.978-9.014,9.563-14.567C39.119.691,29.766-1.168,20.916,1.977,15.655,3.847,9.95,6.793,5.847,10.628.972,15.187.2,19.151.516,20.811,1.65,26.7,9.775,30.538,13.025,33.378c-.164.094-.316.175-.444.245-1.625.807-7.821,4.045-9.364,7.47-1.754,3.881.281,6.664,1.625,7.038a10,10,0,0,0,10.767-4.361,10.8,10.8,0,0,0,.959-9.949.245.245,0,0,0-.047-.07c.421-.245.853-.5,1.274-.748.83-.491,1.648-.947,2.35-1.321a15.405,15.405,0,0,0-.83,4.255c-.175,2.2.725,5.05,1.906,6.173a2.106,2.106,0,0,0,1.543.5c1.38,0,2-1.146,2.689-2.5.842-1.66,1.6-3.589,1.6-3.589s-.947,5.214,1.625,5.214c.935,0,1.882-1.216,2.3-1.835v.012s.023-.035.07-.117l.152-.245v-.023c.374-.655,1.216-2.14,2.467-4.606,1.613-3.18,3.168-7.155,3.168-7.155a20.3,20.3,0,0,0,.62,2.584,24.328,24.328,0,0,0,1.333,2.993c-.374.526-.608.818-.608.818l.012.012c-.3.4-.631.83-.994,1.251a37.283,37.283,0,0,0-3,3.764,1.022,1.022,0,0,0,.281,1.38,2.553,2.553,0,0,0,1.567.257,7.2,7.2,0,0,0,2.35-.538,7.884,7.884,0,0,0,2.022-1.064,4.526,4.526,0,0,0,1.941-3.987,8.05,8.05,0,0,0-.737-2.818c.117-.163.222-.327.339-.491a53.579,53.579,0,0,0,3.507-6.056,20.292,20.292,0,0,0,.62,2.584,17.326,17.326,0,0,0,1.134,2.572,11.113,11.113,0,0,0-3.414,4.408c-.736,2.128-.164,3.086.924,3.308a3.258,3.258,0,0,0,1.707-.351,7.774,7.774,0,0,0,2.163-1.11,4.861,4.861,0,0,0,2.385-3.951,7.47,7.47,0,0,0-.538-2.338,12.246,12.246,0,0,1,6.208-.713c5.565.655,6.664,4.127,6.453,5.588a3.7,3.7,0,0,1-1.765,2.5c-.386.245-.514.327-.479.5.047.257.234.246.561.2a4.346,4.346,0,0,0,3.028-3.87c.175-3.437-3.1-7.19-8.885-7.155ZM12.639,42.521c-1.847,2.011-4.419,2.771-5.53,2.128-1.192-.69-.725-3.659,1.543-5.787a29.458,29.458,0,0,1,4.337-3.238c.269-.164.666-.4,1.146-.69.082-.047.129-.07.129-.07h0l.281-.175a7.985,7.985,0,0,1-1.906,7.833Zm13.444-9.142c-.643,1.566-1.987,5.577-2.806,5.354-.7-.187-1.134-3.227-.14-6.231a14.15,14.15,0,0,1,2.186-4.01c1.005-1.122,2.116-1.5,2.385-1.04.339.6-1.227,4.945-1.625,5.927Zm11.095,5.308c-.269.14-.526.234-.643.164-.082-.047.117-.234.117-.234s1.391-1.5,1.941-2.174c.316-.4.69-.865,1.087-1.391V35.2c0,1.789-1.73,2.993-2.5,3.484Zm8.558-1.952c-.2-.14-.164-.608.5-2.069a7.791,7.791,0,0,1,1.906-2.455,3.309,3.309,0,0,1,.187,1.076,3.537,3.537,0,0,1-2.6,3.449Z" transform="translate(-0.454 -0.454)" fill="#656568">
    </path>
</svg>