<?xml version="1.0" encoding="UTF-8"?>
<svg xmlns="http://www.w3.org/2000/svg" xmlns:xlink="http://www.w3.org/1999/xlink" viewBox="0 0 30 30" width="30px" height="30px">
<g id="surface54792153">
<path style=" stroke:none;fill-rule:nonzero;fill:rgb(39.607844%,39.607844%,40.784314%);fill-opacity:1;" d="M 17.660156 -0.015625 C 19.191406 3.0625 12.191406 4.964844 11.542969 7.527344 C 10.945312 9.882812 15.695312 12.621094 15.699219 12.621094 C 14.980469 11.648438 14.457031 10.84375 13.730469 9.324219 C 12.507812 6.757812 20.964844 4.109375 17.660156 -0.015625 Z M 22.722656 4.195312 C 22.722656 4.195312 17.386719 4.519531 17.113281 7.769531 C 16.992188 9.21875 18.515625 9.992188 18.558594 11.046875 C 18.59375 11.90625 17.648438 12.625 17.648438 12.625 C 17.648438 12.625 19.210938 12.382812 19.746094 11.070312 C 20.34375 9.613281 18.746094 8.550781 18.925781 7.382812 C 19.097656 6.269531 22.722656 4.195312 22.722656 4.195312 Z M 12.761719 12.625 C 12.761719 12.625 7.277344 12.550781 7.277344 14.078125 C 7.277344 15.671875 14.457031 15.78125 19.585938 14.800781 C 19.585938 14.800781 20.75 14.164062 21.113281 13.824219 C 17.753906 14.496094 10.289062 14.300781 10.289062 13.71875 C 10.289062 13.179688 12.761719 12.625 12.761719 12.625 Z M 23.683594 12.664062 C 23.078125 12.640625 22.417969 12.832031 21.851562 13.234375 C 23.039062 12.980469 24.039062 13.710938 24.039062 14.550781 C 24.039062 16.445312 21.316406 18.238281 21.316406 18.238281 C 21.316406 18.238281 25.53125 17.753906 25.53125 14.640625 C 25.53125 13.355469 24.6875 12.707031 23.683594 12.664062 Z M 10.816406 15.433594 C 9.957031 15.429688 8.683594 16.113281 8.683594 16.765625 C 8.683594 18.082031 15.136719 19.097656 19.914062 17.171875 L 18.261719 16.132812 C 15.019531 17.195312 9.046875 16.855469 10.816406 15.429688 Z M 12.03125 18.238281 C 10.851562 18.238281 10.085938 19.03125 10.085938 19.609375 C 10.085938 21.40625 17.125 21.46875 19.914062 19.644531 L 18.140625 18.539062 C 16.058594 19.492188 10.824219 19.621094 12.03125 18.238281 Z M 6.921875 20.988281 C 5.238281 20.9375 4.46875 21.796875 4.46875 22.496094 C 4.46875 26.226562 22.722656 26.050781 22.722656 22.234375 C 22.722656 21.601562 22.019531 21.300781 21.761719 21.15625 C 23.25 24.804688 6.652344 24.554688 6.652344 22.402344 C 6.652344 21.914062 7.53125 21.414062 8.648438 21.640625 C 8.648438 21.640625 8.238281 21.164062 7.699219 21.070312 C 7.417969 21.023438 7.160156 20.996094 6.921875 20.992188 Z M 25.53125 23.796875 C 22.632812 26.632812 14.660156 28.351562 7.277344 26.601562 C 14.695312 29.609375 25.496094 27.277344 25.53125 23.796875 Z M 25.53125 23.796875 "/>
</g>
</svg>
