<svg xmlns="http://www.w3.org/2000/svg" width="48.002" height="48" viewBox="0 0 48.002 48">
    <path id="logo_git" class="tech__zone--svg" d="M47.1,21.952,26.138.995a3.091,3.091,0,0,0-4.371,0L17.415,5.347l5.52,5.52a3.671,3.671,0,0,1,4.649,4.68L32.9,20.868a3.673,3.673,0,1,1-2.2,2.074L25.739,17.98V31.038a3.671,3.671,0,1,1-3.024-.107V17.752a3.629,3.629,0,0,1-1.2-.8,3.677,3.677,0,0,1-.792-4.021L15.276,7.485.906,21.855a3.092,3.092,0,0,0,0,4.373L21.864,47.184a3.092,3.092,0,0,0,4.372,0L47.1,26.326a3.093,3.093,0,0,0,0-4.373" transform="translate(0 -0.089)" fill="#656568">
    </path>
</svg>