<svg xmlns="http://www.w3.org/2000/svg" width="48.001" height="48.001" viewBox="0 0 48.001 48.001">
    <path id="logo_javascript" class="tech__zone--svg" d="M-4810-1070h-48v-48h48v48Zm-15.757-10.5h0l-3.672,2.126c.871,1.72,3.1,4.609,8.216,4.609,4.541,0,7.475-2.467,7.475-6.284,0-3.78-2.2-5.461-5.993-7.088l-1.127-.483c-1.884-.816-2.771-1.352-2.771-2.74a1.966,1.966,0,0,1,2.159-1.932,3.079,3.079,0,0,1,2.9,1.932l3.511-2.255a6.65,6.65,0,0,0-6.411-3.609c-3.889,0-6.605,2.452-6.605,5.962,0,3.948,2.6,5.6,5.413,6.8l1.128.483c2.049.9,3.286,1.438,3.286,3,0,1.33-1.229,2.224-3.06,2.224a4.952,4.952,0,0,1-4.448-2.74Zm-15.95.388h0l-3.673,2.223a6.97,6.97,0,0,0,6.767,4.123c4.343,0,6.735-2.414,6.735-6.8v-15.4h-4.511v15.338c0,2.013-.7,2.835-2.417,2.835-1.592,0-2.227-1.126-2.9-2.319Z" transform="translate(4858 1118)" fill="#656568">
    </path>
</svg>